<mxfile host="Electron" agent="Mozilla/5.0 (Windows NT 10.0; Win64; x64) AppleWebKit/537.36 (KHTML, like Gecko) draw.io/28.2.8 Chrome/140.0.7339.240 Electron/38.4.0 Safari/537.36" version="28.2.8">
  <diagram name="Page-1" id="i8BHy5VST6DeLjOjX4c3">
    <mxGraphModel dx="2066" dy="1236" grid="1" gridSize="10" guides="1" tooltips="1" connect="1" arrows="1" fold="1" page="1" pageScale="1" pageWidth="1169" pageHeight="827" math="0" shadow="0">
      <root>
        <mxCell id="0" />
        <mxCell id="1" parent="0" />
        <mxCell id="v3jekzvOtnn3Ka0mdkfL-23" value="" style="swimlane;startSize=0;fillColor=#d5e8d4;strokeColor=#82b366;" parent="1" vertex="1">
          <mxGeometry x="10" y="190" width="500" height="325" as="geometry" />
        </mxCell>
        <mxCell id="v3jekzvOtnn3Ka0mdkfL-5" value="&lt;font style=&quot;font-size: 16px;&quot;&gt;crm_prd_info&lt;/font&gt;" style="swimlane;whiteSpace=wrap;html=1;startSize=23;fillColor=#d5e8d4;strokeColor=#82b366;" parent="v3jekzvOtnn3Ka0mdkfL-23" vertex="1">
          <mxGeometry x="280" y="60" width="190" height="60" as="geometry" />
        </mxCell>
        <mxCell id="v3jekzvOtnn3Ka0mdkfL-6" value="&lt;font style=&quot;font-size: 14px;&quot;&gt;prd_key&lt;/font&gt;&lt;div&gt;&lt;br&gt;&lt;/div&gt;" style="text;html=1;align=center;verticalAlign=middle;resizable=0;points=[];autosize=1;strokeColor=none;fillColor=none;" parent="v3jekzvOtnn3Ka0mdkfL-5" vertex="1">
          <mxGeometry x="55" y="25" width="70" height="40" as="geometry" />
        </mxCell>
        <mxCell id="v3jekzvOtnn3Ka0mdkfL-7" value="&lt;font style=&quot;font-size: 16px;&quot;&gt;crm_prd_info&lt;/font&gt;" style="swimlane;whiteSpace=wrap;html=1;startSize=23;fillColor=#d5e8d4;strokeColor=#82b366;" parent="v3jekzvOtnn3Ka0mdkfL-23" vertex="1">
          <mxGeometry x="280" y="200" width="190" height="75" as="geometry" />
        </mxCell>
        <mxCell id="v3jekzvOtnn3Ka0mdkfL-8" value="&lt;div&gt;&lt;span style=&quot;font-size: 14px;&quot;&gt;cust_id&lt;/span&gt;&lt;/div&gt;&lt;div&gt;&lt;span style=&quot;font-size: 14px;&quot;&gt;cust_key&lt;/span&gt;&lt;/div&gt;" style="text;html=1;align=center;verticalAlign=middle;resizable=0;points=[];autosize=1;strokeColor=none;fillColor=none;" parent="v3jekzvOtnn3Ka0mdkfL-7" vertex="1">
          <mxGeometry x="50" y="25" width="80" height="50" as="geometry" />
        </mxCell>
        <mxCell id="v3jekzvOtnn3Ka0mdkfL-10" value="&lt;span&gt;Product Information&lt;/span&gt;" style="text;html=1;align=center;verticalAlign=middle;whiteSpace=wrap;rounded=0;fontSize=16;" parent="v3jekzvOtnn3Ka0mdkfL-23" vertex="1">
          <mxGeometry x="280" y="30" width="190" height="20" as="geometry" />
        </mxCell>
        <mxCell id="v3jekzvOtnn3Ka0mdkfL-11" value="&lt;span&gt;Customer Information&lt;/span&gt;" style="text;html=1;align=center;verticalAlign=middle;whiteSpace=wrap;rounded=0;fontSize=16;" parent="v3jekzvOtnn3Ka0mdkfL-23" vertex="1">
          <mxGeometry x="280" y="170" width="190" height="20" as="geometry" />
        </mxCell>
        <mxCell id="v3jekzvOtnn3Ka0mdkfL-9" value="&lt;font&gt;Sales Records&lt;/font&gt;" style="text;html=1;align=center;verticalAlign=middle;whiteSpace=wrap;rounded=0;fontSize=16;" parent="v3jekzvOtnn3Ka0mdkfL-23" vertex="1">
          <mxGeometry y="100" width="190" height="20" as="geometry" />
        </mxCell>
        <mxCell id="v3jekzvOtnn3Ka0mdkfL-35" value="" style="edgeStyle=orthogonalEdgeStyle;rounded=0;orthogonalLoop=1;jettySize=auto;html=1;entryX=0;entryY=0.5;entryDx=0;entryDy=0;" parent="v3jekzvOtnn3Ka0mdkfL-23" source="v3jekzvOtnn3Ka0mdkfL-3" target="v3jekzvOtnn3Ka0mdkfL-5" edge="1">
          <mxGeometry relative="1" as="geometry">
            <Array as="points">
              <mxPoint x="240" y="163" />
              <mxPoint x="240" y="90" />
            </Array>
          </mxGeometry>
        </mxCell>
        <mxCell id="v3jekzvOtnn3Ka0mdkfL-3" value="&lt;font style=&quot;font-size: 16px;&quot;&gt;crm_sales_details&lt;/font&gt;" style="swimlane;whiteSpace=wrap;html=1;startSize=23;fillColor=#d5e8d4;strokeColor=#82b366;" parent="v3jekzvOtnn3Ka0mdkfL-23" vertex="1">
          <mxGeometry x="10" y="125" width="170" height="75" as="geometry" />
        </mxCell>
        <mxCell id="v3jekzvOtnn3Ka0mdkfL-4" value="&lt;font style=&quot;font-size: 14px;&quot;&gt;prd_key&lt;/font&gt;&lt;div&gt;&lt;font style=&quot;font-size: 14px;&quot;&gt;cust_id&lt;/font&gt;&lt;/div&gt;" style="text;html=1;align=center;verticalAlign=middle;resizable=0;points=[];autosize=1;strokeColor=none;fillColor=none;" parent="v3jekzvOtnn3Ka0mdkfL-3" vertex="1">
          <mxGeometry x="50" y="25" width="70" height="50" as="geometry" />
        </mxCell>
        <mxCell id="v3jekzvOtnn3Ka0mdkfL-36" value="" style="edgeStyle=orthogonalEdgeStyle;rounded=0;orthogonalLoop=1;jettySize=auto;html=1;exitX=1;exitY=0.75;exitDx=0;exitDy=0;" parent="v3jekzvOtnn3Ka0mdkfL-23" source="v3jekzvOtnn3Ka0mdkfL-3" edge="1">
          <mxGeometry relative="1" as="geometry">
            <mxPoint x="210" y="173" as="sourcePoint" />
            <mxPoint x="280" y="240" as="targetPoint" />
            <Array as="points">
              <mxPoint x="240" y="181" />
              <mxPoint x="240" y="240" />
              <mxPoint x="280" y="240" />
            </Array>
          </mxGeometry>
        </mxCell>
        <mxCell id="v3jekzvOtnn3Ka0mdkfL-24" value="&lt;span style=&quot;font-size: 26px;&quot;&gt;CRM&lt;/span&gt;" style="text;html=1;align=center;verticalAlign=middle;whiteSpace=wrap;rounded=0;fillColor=#d5e8d4;strokeColor=#82b366;" parent="1" vertex="1">
          <mxGeometry x="230" y="170" width="60" height="30" as="geometry" />
        </mxCell>
        <mxCell id="v3jekzvOtnn3Ka0mdkfL-28" value="" style="swimlane;startSize=0;fillColor=#ffe6cc;strokeColor=#d79b00;" parent="1" vertex="1">
          <mxGeometry x="660" y="180" width="280" height="405" as="geometry" />
        </mxCell>
        <mxCell id="v3jekzvOtnn3Ka0mdkfL-12" value="&lt;span style=&quot;font-size: 18px;&quot;&gt;Product Information&lt;/span&gt;" style="text;html=1;align=center;verticalAlign=middle;whiteSpace=wrap;rounded=0;" parent="v3jekzvOtnn3Ka0mdkfL-28" vertex="1">
          <mxGeometry x="30" y="40" width="190" height="20" as="geometry" />
        </mxCell>
        <mxCell id="v3jekzvOtnn3Ka0mdkfL-13" value="&lt;font style=&quot;font-size: 16px;&quot;&gt;erp_cust_info&lt;/font&gt;" style="swimlane;whiteSpace=wrap;html=1;startSize=23;fillColor=#ffe6cc;strokeColor=#d79b00;" parent="v3jekzvOtnn3Ka0mdkfL-28" vertex="1">
          <mxGeometry x="30" y="70" width="190" height="65" as="geometry" />
        </mxCell>
        <mxCell id="v3jekzvOtnn3Ka0mdkfL-14" value="&lt;span style=&quot;font-size: 14px;&quot;&gt;cust_id&lt;/span&gt;" style="text;html=1;align=center;verticalAlign=middle;resizable=0;points=[];autosize=1;strokeColor=none;fillColor=none;" parent="v3jekzvOtnn3Ka0mdkfL-13" vertex="1">
          <mxGeometry x="60" y="35" width="70" height="30" as="geometry" />
        </mxCell>
        <mxCell id="v3jekzvOtnn3Ka0mdkfL-20" value="&lt;span style=&quot;font-size: 18px;&quot;&gt;Customer Locations&lt;/span&gt;" style="text;html=1;align=center;verticalAlign=middle;whiteSpace=wrap;rounded=0;" parent="v3jekzvOtnn3Ka0mdkfL-28" vertex="1">
          <mxGeometry x="30" y="165" width="190" height="20" as="geometry" />
        </mxCell>
        <mxCell id="v3jekzvOtnn3Ka0mdkfL-18" value="&lt;font style=&quot;font-size: 16px;&quot;&gt;erp_locations&lt;/font&gt;" style="swimlane;whiteSpace=wrap;html=1;startSize=23;fillColor=#ffe6cc;strokeColor=#d79b00;" parent="v3jekzvOtnn3Ka0mdkfL-28" vertex="1">
          <mxGeometry x="30" y="195" width="190" height="60" as="geometry" />
        </mxCell>
        <mxCell id="v3jekzvOtnn3Ka0mdkfL-19" value="&lt;span style=&quot;font-size: 14px;&quot;&gt;cust_id&lt;/span&gt;" style="text;html=1;align=center;verticalAlign=middle;resizable=0;points=[];autosize=1;strokeColor=none;fillColor=none;" parent="v3jekzvOtnn3Ka0mdkfL-18" vertex="1">
          <mxGeometry x="60" y="30" width="70" height="30" as="geometry" />
        </mxCell>
        <mxCell id="v3jekzvOtnn3Ka0mdkfL-17" value="&lt;span style=&quot;font-size: 18px;&quot;&gt;Category Information&lt;/span&gt;" style="text;html=1;align=center;verticalAlign=middle;whiteSpace=wrap;rounded=0;" parent="v3jekzvOtnn3Ka0mdkfL-28" vertex="1">
          <mxGeometry x="30" y="285" width="190" height="20" as="geometry" />
        </mxCell>
        <mxCell id="v3jekzvOtnn3Ka0mdkfL-15" value="&lt;font style=&quot;font-size: 16px;&quot;&gt;erp_cat_info&lt;/font&gt;" style="swimlane;whiteSpace=wrap;html=1;startSize=23;fillColor=#ffe6cc;strokeColor=#d79b00;" parent="v3jekzvOtnn3Ka0mdkfL-28" vertex="1">
          <mxGeometry x="30" y="315" width="190" height="60" as="geometry" />
        </mxCell>
        <mxCell id="v3jekzvOtnn3Ka0mdkfL-16" value="&lt;div&gt;&lt;span style=&quot;font-size: 14px;&quot;&gt;cust_id&lt;/span&gt;&lt;/div&gt;" style="text;html=1;align=center;verticalAlign=middle;resizable=0;points=[];autosize=1;strokeColor=none;fillColor=none;" parent="v3jekzvOtnn3Ka0mdkfL-15" vertex="1">
          <mxGeometry x="60" y="25" width="70" height="30" as="geometry" />
        </mxCell>
        <mxCell id="v3jekzvOtnn3Ka0mdkfL-29" value="&lt;span style=&quot;font-size: 26px;&quot;&gt;ERP&lt;/span&gt;" style="text;html=1;align=center;verticalAlign=middle;whiteSpace=wrap;rounded=0;fillColor=#ffe6cc;strokeColor=#d79b00;" parent="1" vertex="1">
          <mxGeometry x="770" y="160" width="60" height="30" as="geometry" />
        </mxCell>
        <mxCell id="v3jekzvOtnn3Ka0mdkfL-30" value="&lt;b style=&quot;&quot;&gt;&lt;font style=&quot;font-size: 30px;&quot;&gt;Data Warehouse Entitity Relationship Diagram&lt;/font&gt;&lt;/b&gt;" style="text;html=1;align=center;verticalAlign=middle;whiteSpace=wrap;rounded=0;" parent="1" vertex="1">
          <mxGeometry x="160" y="50" width="720" height="30" as="geometry" />
        </mxCell>
        <mxCell id="v3jekzvOtnn3Ka0mdkfL-40" value="" style="edgeStyle=orthogonalEdgeStyle;rounded=0;orthogonalLoop=1;jettySize=auto;html=1;entryX=1;entryY=0.5;entryDx=0;entryDy=0;" parent="1" source="v3jekzvOtnn3Ka0mdkfL-13" target="v3jekzvOtnn3Ka0mdkfL-5" edge="1">
          <mxGeometry relative="1" as="geometry">
            <Array as="points">
              <mxPoint x="590" y="280" />
              <mxPoint x="590" y="280" />
            </Array>
          </mxGeometry>
        </mxCell>
        <mxCell id="v3jekzvOtnn3Ka0mdkfL-52" value="" style="edgeStyle=orthogonalEdgeStyle;rounded=0;orthogonalLoop=1;jettySize=auto;html=1;entryX=1;entryY=0.75;entryDx=0;entryDy=0;" parent="1" source="v3jekzvOtnn3Ka0mdkfL-15" target="v3jekzvOtnn3Ka0mdkfL-7" edge="1">
          <mxGeometry relative="1" as="geometry">
            <mxPoint x="490" y="445" as="targetPoint" />
          </mxGeometry>
        </mxCell>
        <mxCell id="v3jekzvOtnn3Ka0mdkfL-53" value="" style="edgeStyle=orthogonalEdgeStyle;rounded=0;orthogonalLoop=1;jettySize=auto;html=1;entryDx=0;entryDy=0;entryX=1;entryY=0.75;" parent="1" source="v3jekzvOtnn3Ka0mdkfL-18" target="v3jekzvOtnn3Ka0mdkfL-7" edge="1">
          <mxGeometry relative="1" as="geometry">
            <mxPoint x="690" y="405" as="sourcePoint" />
            <mxPoint x="490" y="445" as="targetPoint" />
          </mxGeometry>
        </mxCell>
      </root>
    </mxGraphModel>
  </diagram>
</mxfile>
